<svg xmlns="http://www.w3.org/2000/svg" width="600" height="600" viewBox="0 0 600 600">
  <rect width="600" height="600" fill="#020406"/>

  <!-- ═══ CYAN TRACES – main buses ═══ -->
  <g stroke="#00d4ff" fill="none">
    <polyline points="0,60 80,60 80,100 160,100 160,60 280,60 280,100 360,100 360,60 480,60 480,100 600,100" stroke-width="1.5" opacity="0.22"/>
    <polyline points="0,200 60,200 60,160 140,160 140,200 260,200 260,160 380,160 380,200 500,200 500,160 600,160" stroke-width="1.5" opacity="0.22"/>
    <polyline points="0,340 100,340 100,300 220,300 220,340 360,340 360,300 460,300 460,340 560,340 560,300 600,300" stroke-width="1.5" opacity="0.22"/>
    <polyline points="0,480 80,480 80,440 200,440 200,480 340,480 340,440 460,440 460,480 600,480" stroke-width="1.5" opacity="0.22"/>
    <!-- V connectors -->
    <line x1="80" y1="0" x2="80" y2="60" stroke-width="1" opacity="0.18"/>
    <line x1="80" y1="100" x2="80" y2="200" stroke-width="1" opacity="0.18"/>
    <line x1="80" y1="480" x2="80" y2="600" stroke-width="1" opacity="0.18"/>
    <line x1="160" y1="0" x2="160" y2="60" stroke-width="1" opacity="0.18"/>
    <line x1="160" y1="100" x2="160" y2="160" stroke-width="1" opacity="0.18"/>
    <line x1="260" y1="200" x2="260" y2="300" stroke-width="1" opacity="0.18"/>
    <line x1="280" y1="0" x2="280" y2="60" stroke-width="1" opacity="0.18"/>
    <line x1="360" y1="0" x2="360" y2="60" stroke-width="1" opacity="0.18"/>
    <line x1="360" y1="100" x2="360" y2="160" stroke-width="1" opacity="0.18"/>
    <line x1="380" y1="60" x2="380" y2="160" stroke-width="1" opacity="0.18"/>
    <line x1="460" y1="200" x2="460" y2="300" stroke-width="1" opacity="0.18"/>
    <line x1="460" y1="340" x2="460" y2="440" stroke-width="1" opacity="0.18"/>
    <line x1="460" y1="480" x2="460" y2="600" stroke-width="1" opacity="0.18"/>
    <line x1="480" y1="0" x2="480" y2="60" stroke-width="1" opacity="0.18"/>
    <line x1="500" y1="60" x2="500" y2="160" stroke-width="1" opacity="0.18"/>
    <line x1="500" y1="200" x2="500" y2="300" stroke-width="1" opacity="0.18"/>
    <line x1="100" y1="200" x2="100" y2="340" stroke-width="1" opacity="0.18"/>
    <line x1="100" y1="480" x2="100" y2="600" stroke-width="1" opacity="0.18"/>
    <line x1="220" y1="340" x2="220" y2="480" stroke-width="1" opacity="0.18"/>
    <line x1="560" y1="300" x2="560" y2="600" stroke-width="1" opacity="0.18"/>
    <line x1="200" y1="340" x2="200" y2="440" stroke-width="1" opacity="0.18"/>
    <line x1="340" y1="480" x2="340" y2="600" stroke-width="1" opacity="0.18"/>
    <line x1="140" y1="160" x2="140" y2="300" stroke-width="1" opacity="0.18"/>
  </g>

  <!-- ═══ GREEN TRACES – secondary ═══ -->
  <g stroke="#00ff65" fill="none" opacity="0.16">
    <polyline points="20,130 90,130 90,110 190,110 190,130 310,130 310,110 430,110 430,130 580,130" stroke-width="1"/>
    <polyline points="0,250 70,250 70,270 170,270 170,250 290,250 290,270 410,270 410,250 570,250 570,270 600,270" stroke-width="1"/>
    <polyline points="0,390 110,390 110,370 230,370 230,390 350,390 350,370 470,370 470,390 600,390" stroke-width="1"/>
    <polyline points="0,530 120,530 120,510 240,510 240,530 400,530 400,510 520,510 520,530 600,530" stroke-width="1"/>
    <line x1="90" y1="60" x2="90" y2="110" stroke-width="1"/>
    <line x1="90" y1="130" x2="90" y2="200" stroke-width="1"/>
    <line x1="190" y1="60" x2="190" y2="110" stroke-width="1"/>
    <line x1="190" y1="130" x2="190" y2="200" stroke-width="1"/>
    <line x1="310" y1="130" x2="310" y2="200" stroke-width="1"/>
    <line x1="430" y1="60" x2="430" y2="110" stroke-width="1"/>
    <line x1="430" y1="130" x2="430" y2="160" stroke-width="1"/>
    <line x1="70" y1="250" x2="70" y2="340" stroke-width="1"/>
    <line x1="170" y1="250" x2="170" y2="160" stroke-width="1"/>
    <line x1="170" y1="270" x2="170" y2="340" stroke-width="1"/>
    <line x1="290" y1="250" x2="290" y2="160" stroke-width="1"/>
    <line x1="290" y1="270" x2="290" y2="340" stroke-width="1"/>
    <line x1="410" y1="250" x2="410" y2="160" stroke-width="1"/>
    <line x1="570" y1="160" x2="570" y2="250" stroke-width="1"/>
    <line x1="110" y1="370" x2="110" y2="300" stroke-width="1"/>
    <line x1="110" y1="390" x2="110" y2="480" stroke-width="1"/>
    <line x1="230" y1="370" x2="230" y2="300" stroke-width="1"/>
    <line x1="230" y1="390" x2="230" y2="480" stroke-width="1"/>
    <line x1="350" y1="390" x2="350" y2="480" stroke-width="1"/>
    <line x1="470" y1="300" x2="470" y2="370" stroke-width="1"/>
    <line x1="120" y1="480" x2="120" y2="510" stroke-width="1"/>
    <line x1="120" y1="530" x2="120" y2="600" stroke-width="1"/>
    <line x1="240" y1="480" x2="240" y2="510" stroke-width="1"/>
    <line x1="400" y1="530" x2="400" y2="600" stroke-width="1"/>
    <line x1="520" y1="510" x2="520" y2="600" stroke-width="1"/>
  </g>

  <!-- ═══ PURPLE ACCENT TRACES ═══ -->
  <g stroke="#a040ff" fill="none" opacity="0.13">
    <polyline points="40,550 40,500 150,500 150,550 310,550 310,500 470,500 470,550 600,550" stroke-width="1"/>
    <polyline points="540,0 540,60 540,160 580,160 580,320 540,320 540,480 540,600" stroke-width="1"/>
    <polyline points="0,420 30,420 30,460 90,460 90,420" stroke-width="1"/>
    <line x1="40" y1="480" x2="40" y2="500" stroke-width="1"/>
    <line x1="150" y1="550" x2="150" y2="600" stroke-width="1"/>
    <line x1="310" y1="480" x2="310" y2="500" stroke-width="1"/>
    <line x1="470" y1="480" x2="470" y2="500" stroke-width="1"/>
    <line x1="30" y1="340" x2="30" y2="420" stroke-width="1"/>
    <line x1="580" y1="60" x2="580" y2="160" stroke-width="1"/>
  </g>

  <!-- ═══ GLOWING ACCENT LINES (active signal) ═══ -->
  <g stroke="#00d4ff" fill="none" opacity="0.5" stroke-width="1.2">
    <line x1="160" y1="0" x2="160" y2="60"/>
    <line x1="460" y1="300" x2="460" y2="340"/>
    <line x1="0" y1="60" x2="80" y2="60"/>
    <line x1="340" y1="480" x2="340" y2="600"/>
  </g>
  <g stroke="#00ff65" fill="none" opacity="0.45" stroke-width="1">
    <line x1="350" y1="370" x2="350" y2="480"/>
    <line x1="290" y1="270" x2="290" y2="340"/>
  </g>

  <!-- ═══ CYAN NODES ═══ -->
  <g fill="#00d4ff" opacity="0.5">
    <circle cx="80" cy="60" r="2.5"/>
    <circle cx="80" cy="100" r="2.5"/>
    <circle cx="80" cy="200" r="2.5"/>
    <circle cx="80" cy="480" r="2.5"/>
    <circle cx="160" cy="100" r="2.5"/>
    <circle cx="260" cy="200" r="2.5"/>
    <circle cx="260" cy="300" r="2.5"/>
    <circle cx="280" cy="60" r="2.5"/>
    <circle cx="360" cy="60" r="2.5"/>
    <circle cx="360" cy="100" r="2.5"/>
    <circle cx="380" cy="160" r="2.5"/>
    <circle cx="460" cy="200" r="2.5"/>
    <circle cx="460" cy="340" r="2.5"/>
    <circle cx="460" cy="440" r="2.5"/>
    <circle cx="480" cy="60" r="2.5"/>
    <circle cx="500" cy="160" r="2.5"/>
    <circle cx="500" cy="200" r="2.5"/>
    <circle cx="500" cy="300" r="2.5"/>
    <circle cx="100" cy="200" r="2.5"/>
    <circle cx="100" cy="340" r="2.5"/>
    <circle cx="100" cy="480" r="2.5"/>
    <circle cx="220" cy="340" r="2.5"/>
    <circle cx="220" cy="480" r="2.5"/>
    <circle cx="560" cy="300" r="2.5"/>
    <circle cx="200" cy="340" r="2.5"/>
    <circle cx="200" cy="440" r="2.5"/>
    <circle cx="340" cy="480" r="2.5"/>
    <circle cx="140" cy="160" r="2.5"/>
    <circle cx="140" cy="300" r="2.5"/>
  </g>

  <!-- ═══ ACTIVE/BRIGHT NODES – with halo ═══ -->
  <g fill="#00d4ff" opacity="0.12">
    <circle cx="160" cy="60" r="12"/>
    <circle cx="460" cy="300" r="12"/>
    <circle cx="260" cy="200" r="12"/>
    <circle cx="80" cy="480" r="10"/>
    <circle cx="500" cy="300" r="10"/>
  </g>
  <g fill="#00d4ff" opacity="0.85">
    <circle cx="160" cy="60" r="4"/>
    <circle cx="460" cy="300" r="4"/>
    <circle cx="260" cy="200" r="4"/>
    <circle cx="80" cy="480" r="4"/>
    <circle cx="500" cy="300" r="4"/>
  </g>

  <!-- ═══ GREEN NODES ═══ -->
  <g fill="#00ff65" opacity="0.42">
    <circle cx="90" cy="110" r="2"/>
    <circle cx="90" cy="130" r="2"/>
    <circle cx="190" cy="110" r="2"/>
    <circle cx="190" cy="130" r="2"/>
    <circle cx="310" cy="130" r="2"/>
    <circle cx="430" cy="110" r="2"/>
    <circle cx="70" cy="250" r="2"/>
    <circle cx="70" cy="270" r="2"/>
    <circle cx="170" cy="250" r="2"/>
    <circle cx="170" cy="270" r="2"/>
    <circle cx="290" cy="250" r="2"/>
    <circle cx="290" cy="270" r="2"/>
    <circle cx="410" cy="250" r="2"/>
    <circle cx="570" cy="250" r="2"/>
    <circle cx="110" cy="370" r="2"/>
    <circle cx="110" cy="390" r="2"/>
    <circle cx="230" cy="370" r="2"/>
    <circle cx="350" cy="370" r="2"/>
    <circle cx="470" cy="370" r="2"/>
    <circle cx="120" cy="510" r="2"/>
    <circle cx="240" cy="530" r="2"/>
    <circle cx="400" cy="510" r="2"/>
    <circle cx="520" cy="530" r="2"/>
  </g>

  <!-- ═══ IC CHIP 1 – top center ═══ -->
  <g opacity="0.42">
    <rect x="197" y="47" width="78" height="46" rx="2" fill="#020810" stroke="#00d4ff" stroke-width="1"/>
    <circle cx="201" cy="53" r="1.8" fill="#00d4ff"/>
    <line x1="183" y1="57" x2="197" y2="57" stroke="#00d4ff" stroke-width="1.1"/>
    <line x1="183" y1="67" x2="197" y2="67" stroke="#00d4ff" stroke-width="1.1"/>
    <line x1="183" y1="77" x2="197" y2="77" stroke="#00d4ff" stroke-width="1.1"/>
    <line x1="275" y1="57" x2="289" y2="57" stroke="#00d4ff" stroke-width="1.1"/>
    <line x1="275" y1="67" x2="289" y2="67" stroke="#00d4ff" stroke-width="1.1"/>
    <line x1="275" y1="77" x2="289" y2="77" stroke="#00d4ff" stroke-width="1.1"/>
    <line x1="217" y1="33" x2="217" y2="47" stroke="#00d4ff" stroke-width="1.1"/>
    <line x1="237" y1="33" x2="237" y2="47" stroke="#00d4ff" stroke-width="1.1"/>
    <line x1="255" y1="93" x2="255" y2="107" stroke="#00d4ff" stroke-width="1.1"/>
    <text x="236" y="72" font-family="monospace" font-size="7" fill="#00d4ff" opacity="0.85" text-anchor="middle">IC-01</text>
    <text x="236" y="82" font-family="monospace" font-size="5" fill="#00d4ff" opacity="0.5" text-anchor="middle">CTRL</text>
  </g>

  <!-- ═══ MAIN MCU – center ═══ -->
  <g opacity="0.45">
    <rect x="293" y="247" width="106" height="86" rx="2" fill="#010608" stroke="#00d4ff" stroke-width="1.2"/>
    <circle cx="299" cy="253" r="2.2" fill="#00d4ff"/>
    <line x1="279" y1="259" x2="293" y2="259" stroke="#00d4ff" stroke-width="1.1"/>
    <line x1="279" y1="271" x2="293" y2="271" stroke="#00d4ff" stroke-width="1.1"/>
    <line x1="279" y1="283" x2="293" y2="283" stroke="#00d4ff" stroke-width="1.1"/>
    <line x1="279" y1="295" x2="293" y2="295" stroke="#00d4ff" stroke-width="1.1"/>
    <line x1="279" y1="307" x2="293" y2="307" stroke="#00d4ff" stroke-width="1.1"/>
    <line x1="399" y1="259" x2="413" y2="259" stroke="#00d4ff" stroke-width="1.1"/>
    <line x1="399" y1="271" x2="413" y2="271" stroke="#00d4ff" stroke-width="1.1"/>
    <line x1="399" y1="283" x2="413" y2="283" stroke="#00d4ff" stroke-width="1.1"/>
    <line x1="399" y1="295" x2="413" y2="295" stroke="#00d4ff" stroke-width="1.1"/>
    <line x1="399" y1="319" x2="413" y2="319" stroke="#00d4ff" stroke-width="1.1"/>
    <line x1="311" y1="233" x2="311" y2="247" stroke="#00d4ff" stroke-width="1.1"/>
    <line x1="327" y1="233" x2="327" y2="247" stroke="#00d4ff" stroke-width="1.1"/>
    <line x1="343" y1="233" x2="343" y2="247" stroke="#00d4ff" stroke-width="1.1"/>
    <line x1="375" y1="233" x2="375" y2="247" stroke="#00d4ff" stroke-width="1.1"/>
    <line x1="311" y1="333" x2="311" y2="347" stroke="#00d4ff" stroke-width="1.1"/>
    <line x1="343" y1="333" x2="343" y2="347" stroke="#00d4ff" stroke-width="1.1"/>
    <line x1="375" y1="333" x2="375" y2="347" stroke="#00d4ff" stroke-width="1.1"/>
    <text x="346" y="284" font-family="monospace" font-size="9" fill="#00d4ff" opacity="0.9" text-anchor="middle">MCU</text>
    <text x="346" y="296" font-family="monospace" font-size="6" fill="#00d4ff" opacity="0.55" text-anchor="middle">ARM Cortex-M4</text>
    <text x="346" y="308" font-family="monospace" font-size="5" fill="#00d4ff" opacity="0.35" text-anchor="middle">0x4F52 / 168MHz</text>
  </g>

  <!-- ═══ FPGA CHIP – bottom-left ═══ -->
  <g opacity="0.38">
    <rect x="44" y="383" width="86" height="54" rx="2" fill="#010608" stroke="#00ff65" stroke-width="1"/>
    <circle cx="50" cy="389" r="1.8" fill="#00ff65"/>
    <line x1="30" y1="393" x2="44" y2="393" stroke="#00ff65" stroke-width="1"/>
    <line x1="30" y1="405" x2="44" y2="405" stroke="#00ff65" stroke-width="1"/>
    <line x1="30" y1="417" x2="44" y2="417" stroke="#00ff65" stroke-width="1"/>
    <line x1="130" y1="393" x2="144" y2="393" stroke="#00ff65" stroke-width="1"/>
    <line x1="130" y1="405" x2="144" y2="405" stroke="#00ff65" stroke-width="1"/>
    <line x1="130" y1="417" x2="144" y2="417" stroke="#00ff65" stroke-width="1"/>
    <line x1="62" y1="369" x2="62" y2="383" stroke="#00ff65" stroke-width="1"/>
    <line x1="80" y1="437" x2="80" y2="451" stroke="#00ff65" stroke-width="1"/>
    <text x="87" y="409" font-family="monospace" font-size="8" fill="#00ff65" opacity="0.75" text-anchor="middle">FPGA</text>
    <text x="87" y="420" font-family="monospace" font-size="5" fill="#00ff65" opacity="0.45" text-anchor="middle">XILINX XC7</text>
  </g>

  <!-- ═══ MEMORY CHIP – top-right ═══ -->
  <g opacity="0.36">
    <rect x="448" y="47" width="70" height="44" rx="2" fill="#010608" stroke="#a040ff" stroke-width="1"/>
    <circle cx="454" cy="53" r="1.5" fill="#a040ff"/>
    <line x1="434" y1="57" x2="448" y2="57" stroke="#a040ff" stroke-width="1"/>
    <line x1="434" y1="67" x2="448" y2="67" stroke="#a040ff" stroke-width="1"/>
    <line x1="434" y1="77" x2="448" y2="77" stroke="#a040ff" stroke-width="1"/>
    <line x1="518" y1="57" x2="532" y2="57" stroke="#a040ff" stroke-width="1"/>
    <line x1="518" y1="67" x2="532" y2="67" stroke="#a040ff" stroke-width="1"/>
    <line x1="518" y1="77" x2="532" y2="77" stroke="#a040ff" stroke-width="1"/>
    <text x="483" y="72" font-family="monospace" font-size="7" fill="#a040ff" opacity="0.8" text-anchor="middle">DRAM</text>
    <text x="483" y="82" font-family="monospace" font-size="5" fill="#a040ff" opacity="0.45" text-anchor="middle">DDR4-3200</text>
  </g>

  <!-- ═══ SMALL COMPONENTS – resistors ═══ -->
  <g fill="none" stroke="#00ff65" stroke-width="0.8" opacity="0.28">
    <rect x="84" y="103" width="18" height="9" rx="1.5"/>
    <rect x="188" y="162" width="18" height="9" rx="1.5"/>
    <rect x="308" y="103" width="18" height="9" rx="1.5"/>
    <rect x="428" y="152" width="18" height="9" rx="1.5"/>
    <rect x="128" y="263" width="18" height="9" rx="1.5"/>
    <rect x="408" y="243" width="18" height="9" rx="1.5"/>
    <rect x="348" y="363" width="18" height="9" rx="1.5"/>
    <rect x="118" y="503" width="18" height="9" rx="1.5"/>
    <rect x="398" y="503" width="18" height="9" rx="1.5"/>
  </g>

  <!-- ═══ CAPACITORS – parallel lines ═══ -->
  <g stroke="#00d4ff" stroke-width="1.2" opacity="0.28">
    <line x1="254" y1="193" x2="254" y2="209"/>
    <line x1="259" y1="193" x2="259" y2="209"/>
    <line x1="495" y1="153" x2="495" y2="169"/>
    <line x1="500" y1="153" x2="500" y2="169"/>
    <line x1="74" y1="193" x2="74" y2="209"/>
    <line x1="79" y1="193" x2="79" y2="209"/>
    <line x1="453" y1="293" x2="453" y2="309"/>
    <line x1="458" y1="293" x2="458" y2="309"/>
    <line x1="214" y1="433" x2="214" y2="449"/>
    <line x1="219" y1="433" x2="219" y2="449"/>
  </g>

  <!-- ═══ BINARY / HEX TEXT ═══ -->
  <g font-family="monospace" font-size="7" fill="#00d4ff" opacity="0.10">
    <text x="8" y="28">01001000 01100001 01100011 01101011</text>
    <text x="302" y="182">0xFF 0x2A 0x4C 0x00</text>
    <text x="8" y="178">MOV AX, 0x1337</text>
    <text x="450" y="230">PUSH EBP</text>
    <text x="28" y="322">XOR EAX, EAX</text>
    <text x="302" y="458">NOP // 0x90 0x90</text>
    <text x="8" y="462">JMP 0xDEADBEEF</text>
    <text x="450" y="562">INT 0x80</text>
    <text x="28" y="562">SHELLCODE[0x40]</text>
    <text x="162" y="578">SYS_EXECVE("/bin/sh")</text>
    <text x="382" y="22">KERNEL_EXPLOIT</text>
    <text x="8" y="572">#!/usr/bin/env python3</text>
  </g>

  <!-- ═══ REGISTER / SIGNAL LABELS ═══ -->
  <g font-family="monospace" font-size="6" fill="#a040ff" opacity="0.18">
    <text x="10" y="52">0x3F800000</text>
    <text x="332" y="138">IRQ[7]</text>
    <text x="512" y="188">DMA_CH0</text>
    <text x="10" y="292">UART_TX</text>
    <text x="484" y="398">GPIO[15]</text>
    <text x="52" y="552">FIFO_EMPTY</text>
    <text x="332" y="428">CLK_DIV_4</text>
    <text x="552" y="552">VCC_3V3</text>
    <text x="10" y="132">SPI_MOSI</text>
    <text x="452" y="132">I2C_SDA</text>
  </g>

  <!-- ═══ CORNER BRACKETS ═══ -->
  <g stroke="#00d4ff" fill="none" stroke-width="1.2" opacity="0.35">
    <path d="M2,2 L2,22 M2,2 L22,2"/>
    <path d="M598,2 L598,22 M598,2 L578,2"/>
    <path d="M2,598 L2,578 M2,598 L22,598"/>
    <path d="M598,598 L598,578 M598,598 L578,598"/>
  </g>

  <!-- ═══ PULSE RING (active data flow indicator) ═══ -->
  <circle cx="160" cy="60" r="8" fill="none" stroke="#00d4ff" stroke-width="0.8" opacity="0.2"/>
  <circle cx="460" cy="300" r="8" fill="none" stroke="#00d4ff" stroke-width="0.8" opacity="0.2"/>
  <circle cx="260" cy="200" r="7" fill="none" stroke="#00ff65" stroke-width="0.8" opacity="0.2"/>
</svg>
